%TF.GenerationSoftware,KiCad,Pcbnew,7.0.2*%
%TF.CreationDate,2023-05-22T00:30:27+09:00*%
%TF.ProjectId,16seg,31367365-672e-46b6-9963-61645f706362,rev?*%
%TF.SameCoordinates,Original*%
%TF.FileFunction,Paste,Top*%
%TF.FilePolarity,Positive*%
%FSLAX46Y46*%
G04 Gerber Fmt 4.6, Leading zero omitted, Abs format (unit mm)*
G04 Created by KiCad (PCBNEW 7.0.2) date 2023-05-22 00:30:27*
%MOMM*%
%LPD*%
G01*
G04 APERTURE LIST*
G04 Aperture macros list*
%AMRoundRect*
0 Rectangle with rounded corners*
0 $1 Rounding radius*
0 $2 $3 $4 $5 $6 $7 $8 $9 X,Y pos of 4 corners*
0 Add a 4 corners polygon primitive as box body*
4,1,4,$2,$3,$4,$5,$6,$7,$8,$9,$2,$3,0*
0 Add four circle primitives for the rounded corners*
1,1,$1+$1,$2,$3*
1,1,$1+$1,$4,$5*
1,1,$1+$1,$6,$7*
1,1,$1+$1,$8,$9*
0 Add four rect primitives between the rounded corners*
20,1,$1+$1,$2,$3,$4,$5,0*
20,1,$1+$1,$4,$5,$6,$7,0*
20,1,$1+$1,$6,$7,$8,$9,0*
20,1,$1+$1,$8,$9,$2,$3,0*%
G04 Aperture macros list end*
%ADD10RoundRect,0.225000X-0.375000X0.225000X-0.375000X-0.225000X0.375000X-0.225000X0.375000X0.225000X0*%
%ADD11RoundRect,0.225000X0.375000X-0.225000X0.375000X0.225000X-0.375000X0.225000X-0.375000X-0.225000X0*%
%ADD12RoundRect,0.250000X0.625000X-0.312500X0.625000X0.312500X-0.625000X0.312500X-0.625000X-0.312500X0*%
%ADD13RoundRect,0.150000X0.150000X-0.587500X0.150000X0.587500X-0.150000X0.587500X-0.150000X-0.587500X0*%
%ADD14R,0.400000X1.100000*%
G04 APERTURE END LIST*
D10*
%TO.C,D4*%
X167930000Y-100418400D03*
X167930000Y-97118400D03*
%TD*%
%TO.C,D16*%
X157770000Y-100418400D03*
X157770000Y-97118400D03*
%TD*%
D11*
%TO.C,D2*%
X162850000Y-43140000D03*
X162850000Y-46440000D03*
%TD*%
%TO.C,D8*%
X150150000Y-43140000D03*
X150150000Y-46440000D03*
%TD*%
D10*
%TO.C,D9*%
X150150000Y-100418400D03*
X150150000Y-97118400D03*
%TD*%
D11*
%TO.C,D12*%
X157770000Y-43140000D03*
X157770000Y-46440000D03*
%TD*%
D10*
%TO.C,D14*%
X165390000Y-100418400D03*
X165390000Y-97118400D03*
%TD*%
%TO.C,D7*%
X152690000Y-100418400D03*
X152690000Y-97118400D03*
%TD*%
%TO.C,D15*%
X160310000Y-100418400D03*
X160310000Y-97118400D03*
%TD*%
%TO.C,D6*%
X162850000Y-100418400D03*
X162850000Y-97118400D03*
%TD*%
D11*
%TO.C,D13*%
X160310000Y-43140000D03*
X160310000Y-46440000D03*
%TD*%
%TO.C,D1*%
X155230000Y-43140000D03*
X155230000Y-46440000D03*
%TD*%
%TO.C,D11*%
X152690000Y-43140000D03*
X152690000Y-46440000D03*
%TD*%
D10*
%TO.C,D17*%
X170470000Y-100418400D03*
X170470000Y-97118400D03*
%TD*%
D11*
%TO.C,D10*%
X167930000Y-43140000D03*
X167930000Y-46440000D03*
%TD*%
D10*
%TO.C,D5*%
X155230000Y-100418400D03*
X155230000Y-97118400D03*
%TD*%
D11*
%TO.C,D3*%
X165390000Y-43140000D03*
X165390000Y-46440000D03*
%TD*%
D12*
%TO.C,R16*%
X178430000Y-62615000D03*
X178430000Y-59690000D03*
%TD*%
%TO.C,R4*%
X157073600Y-57342500D03*
X157073600Y-54417500D03*
%TD*%
%TO.C,R7*%
X175107600Y-57342500D03*
X175107600Y-54417500D03*
%TD*%
%TO.C,R15*%
X172440000Y-62615000D03*
X172440000Y-59690000D03*
%TD*%
D13*
%TO.C,Q3*%
X153126400Y-51585100D03*
X155026400Y-51585100D03*
X154076400Y-49710100D03*
%TD*%
D12*
%TO.C,R31*%
X142305200Y-78285000D03*
X142305200Y-75360000D03*
%TD*%
%TO.C,R20*%
X157052000Y-72982500D03*
X157052000Y-70057500D03*
%TD*%
D14*
%TO.C,U14*%
X140990200Y-73681600D03*
X141640200Y-73681600D03*
X142290200Y-73681600D03*
X142940200Y-73681600D03*
X142940200Y-69381600D03*
X142290200Y-69381600D03*
X141640200Y-69381600D03*
X140990200Y-69381600D03*
%TD*%
D13*
%TO.C,Q8*%
X177157200Y-67225100D03*
X179057200Y-67225100D03*
X178107200Y-65350100D03*
%TD*%
D14*
%TO.C,U2*%
X147059000Y-58033200D03*
X147709000Y-58033200D03*
X148359000Y-58033200D03*
X149009000Y-58033200D03*
X149009000Y-53733200D03*
X148359000Y-53733200D03*
X147709000Y-53733200D03*
X147059000Y-53733200D03*
%TD*%
%TO.C,U6*%
X171135400Y-58030000D03*
X171785400Y-58030000D03*
X172435400Y-58030000D03*
X173085400Y-58030000D03*
X173085400Y-53730000D03*
X172435400Y-53730000D03*
X171785400Y-53730000D03*
X171135400Y-53730000D03*
%TD*%
D12*
%TO.C,R22*%
X145032800Y-72972500D03*
X145032800Y-70047500D03*
%TD*%
D13*
%TO.C,Q14*%
X141050000Y-67187500D03*
X142950000Y-67187500D03*
X142000000Y-65312500D03*
%TD*%
D12*
%TO.C,R5*%
X163118800Y-57342500D03*
X163118800Y-54417500D03*
%TD*%
%TO.C,R8*%
X175110000Y-72982500D03*
X175110000Y-70057500D03*
%TD*%
D14*
%TO.C,U8*%
X177132200Y-73670000D03*
X177782200Y-73670000D03*
X178432200Y-73670000D03*
X179082200Y-73670000D03*
X179082200Y-69370000D03*
X178432200Y-69370000D03*
X177782200Y-69370000D03*
X177132200Y-69370000D03*
%TD*%
D13*
%TO.C,Q13*%
X147130800Y-67215100D03*
X149030800Y-67215100D03*
X148080800Y-65340100D03*
%TD*%
D12*
%TO.C,R27*%
X166494400Y-78262600D03*
X166494400Y-75337600D03*
%TD*%
D14*
%TO.C,U17*%
X152995000Y-89604900D03*
X153645000Y-89604900D03*
X154295000Y-89604900D03*
X154945000Y-89604900D03*
X154945000Y-85304900D03*
X154295000Y-85304900D03*
X153645000Y-85304900D03*
X152995000Y-85304900D03*
%TD*%
D12*
%TO.C,R10*%
X142359000Y-62564200D03*
X142359000Y-59639200D03*
%TD*%
D14*
%TO.C,U10*%
X165195000Y-73670000D03*
X165845000Y-73670000D03*
X166495000Y-73670000D03*
X167145000Y-73670000D03*
X167145000Y-69370000D03*
X166495000Y-69370000D03*
X165845000Y-69370000D03*
X165195000Y-69370000D03*
%TD*%
%TO.C,U3*%
X153084000Y-58030000D03*
X153734000Y-58030000D03*
X154384000Y-58030000D03*
X155034000Y-58030000D03*
X155034000Y-53730000D03*
X154384000Y-53730000D03*
X153734000Y-53730000D03*
X153084000Y-53730000D03*
%TD*%
D12*
%TO.C,R14*%
X166420800Y-62615000D03*
X166420800Y-59690000D03*
%TD*%
D13*
%TO.C,Q17*%
X153020000Y-83160000D03*
X154920000Y-83160000D03*
X153970000Y-81285000D03*
%TD*%
D14*
%TO.C,U13*%
X147055000Y-73660000D03*
X147705000Y-73660000D03*
X148355000Y-73660000D03*
X149005000Y-73660000D03*
X149005000Y-69360000D03*
X148355000Y-69360000D03*
X147705000Y-69360000D03*
X147055000Y-69360000D03*
%TD*%
D12*
%TO.C,R13*%
X160426400Y-62615000D03*
X160426400Y-59690000D03*
%TD*%
D13*
%TO.C,Q7*%
X177154800Y-51585100D03*
X179054800Y-51585100D03*
X178104800Y-49710100D03*
%TD*%
%TO.C,Q5*%
X165166000Y-51585100D03*
X167066000Y-51585100D03*
X166116000Y-49710100D03*
%TD*%
D12*
%TO.C,R33*%
X148248800Y-94185100D03*
X148248800Y-91260100D03*
%TD*%
%TO.C,R23*%
X139023600Y-73014100D03*
X139023600Y-70089100D03*
%TD*%
%TO.C,R11*%
X148359000Y-62615000D03*
X148359000Y-59690000D03*
%TD*%
%TO.C,R2*%
X145034000Y-57353200D03*
X145034000Y-54428200D03*
%TD*%
%TO.C,R9*%
X169104000Y-72992500D03*
X169104000Y-70067500D03*
%TD*%
D14*
%TO.C,U15*%
X140975000Y-89594900D03*
X141625000Y-89594900D03*
X142275000Y-89594900D03*
X142925000Y-89594900D03*
X142925000Y-85294900D03*
X142275000Y-85294900D03*
X141625000Y-85294900D03*
X140975000Y-85294900D03*
%TD*%
%TO.C,U7*%
X177129800Y-58030000D03*
X177779800Y-58030000D03*
X178429800Y-58030000D03*
X179079800Y-58030000D03*
X179079800Y-53730000D03*
X178429800Y-53730000D03*
X177779800Y-53730000D03*
X177129800Y-53730000D03*
%TD*%
D12*
%TO.C,R29*%
X154384000Y-78232600D03*
X154384000Y-75307600D03*
%TD*%
%TO.C,R17*%
X178430400Y-78262600D03*
X178430400Y-75337600D03*
%TD*%
D13*
%TO.C,Q11*%
X159200800Y-67197400D03*
X161100800Y-67197400D03*
X160150800Y-65322400D03*
%TD*%
D12*
%TO.C,R12*%
X154380000Y-62625000D03*
X154380000Y-59700000D03*
%TD*%
D13*
%TO.C,Q16*%
X146980000Y-83150000D03*
X148880000Y-83150000D03*
X147930000Y-81275000D03*
%TD*%
D12*
%TO.C,R18*%
X172430000Y-78262600D03*
X172430000Y-75337600D03*
%TD*%
%TO.C,R19*%
X163172800Y-72982500D03*
X163172800Y-70057500D03*
%TD*%
D14*
%TO.C,U16*%
X146955000Y-89594900D03*
X147605000Y-89594900D03*
X148255000Y-89594900D03*
X148905000Y-89594900D03*
X148905000Y-85294900D03*
X148255000Y-85294900D03*
X147605000Y-85294900D03*
X146955000Y-85294900D03*
%TD*%
D13*
%TO.C,Q6*%
X171160400Y-51585100D03*
X173060400Y-51585100D03*
X172110400Y-49710100D03*
%TD*%
D14*
%TO.C,U11*%
X159125000Y-73670000D03*
X159775000Y-73670000D03*
X160425000Y-73670000D03*
X161075000Y-73670000D03*
X161075000Y-69370000D03*
X160425000Y-69370000D03*
X159775000Y-69370000D03*
X159125000Y-69370000D03*
%TD*%
D13*
%TO.C,Q12*%
X153049200Y-67195100D03*
X154949200Y-67195100D03*
X153999200Y-65320100D03*
%TD*%
D12*
%TO.C,R21*%
X151052800Y-72952500D03*
X151052800Y-70027500D03*
%TD*%
D14*
%TO.C,U4*%
X159129200Y-58030000D03*
X159779200Y-58030000D03*
X160429200Y-58030000D03*
X161079200Y-58030000D03*
X161079200Y-53730000D03*
X160429200Y-53730000D03*
X159779200Y-53730000D03*
X159129200Y-53730000D03*
%TD*%
D12*
%TO.C,R34*%
X154302400Y-94205100D03*
X154302400Y-91280100D03*
%TD*%
%TO.C,R3*%
X151079200Y-57342500D03*
X151079200Y-54417500D03*
%TD*%
D14*
%TO.C,U9*%
X171126200Y-73680000D03*
X171776200Y-73680000D03*
X172426200Y-73680000D03*
X173076200Y-73680000D03*
X173076200Y-69380000D03*
X172426200Y-69380000D03*
X171776200Y-69380000D03*
X171126200Y-69380000D03*
%TD*%
D13*
%TO.C,Q9*%
X171202000Y-67184300D03*
X173102000Y-67184300D03*
X172152000Y-65309300D03*
%TD*%
D12*
%TO.C,R32*%
X142274400Y-94185100D03*
X142274400Y-91260100D03*
%TD*%
D14*
%TO.C,U1*%
X141059000Y-58013600D03*
X141709000Y-58013600D03*
X142359000Y-58013600D03*
X143009000Y-58013600D03*
X143009000Y-53713600D03*
X142359000Y-53713600D03*
X141709000Y-53713600D03*
X141059000Y-53713600D03*
%TD*%
D12*
%TO.C,R1*%
X139042000Y-57353200D03*
X139042000Y-54428200D03*
%TD*%
D13*
%TO.C,Q1*%
X141102000Y-51612800D03*
X143002000Y-51612800D03*
X142052000Y-49737800D03*
%TD*%
D14*
%TO.C,U12*%
X153075000Y-73640000D03*
X153725000Y-73640000D03*
X154375000Y-73640000D03*
X155025000Y-73640000D03*
X155025000Y-69340000D03*
X154375000Y-69340000D03*
X153725000Y-69340000D03*
X153075000Y-69340000D03*
%TD*%
D12*
%TO.C,R26*%
X150972800Y-88917400D03*
X150972800Y-85992400D03*
%TD*%
D13*
%TO.C,Q10*%
X165270800Y-67225100D03*
X167170800Y-67225100D03*
X166220800Y-65350100D03*
%TD*%
%TO.C,Q4*%
X159150000Y-51577500D03*
X161050000Y-51577500D03*
X160100000Y-49702500D03*
%TD*%
D14*
%TO.C,U5*%
X165141000Y-58030000D03*
X165791000Y-58030000D03*
X166441000Y-58030000D03*
X167091000Y-58030000D03*
X167091000Y-53730000D03*
X166441000Y-53730000D03*
X165791000Y-53730000D03*
X165141000Y-53730000D03*
%TD*%
D12*
%TO.C,R24*%
X138952800Y-88907400D03*
X138952800Y-85982400D03*
%TD*%
D13*
%TO.C,Q2*%
X147034000Y-51483200D03*
X148934000Y-51483200D03*
X147984000Y-49608200D03*
%TD*%
D12*
%TO.C,R28*%
X160428400Y-78262600D03*
X160428400Y-75337600D03*
%TD*%
%TO.C,R25*%
X144932800Y-88907400D03*
X144932800Y-85982400D03*
%TD*%
D13*
%TO.C,Q15*%
X141000000Y-83150000D03*
X142900000Y-83150000D03*
X141950000Y-81275000D03*
%TD*%
D12*
%TO.C,R30*%
X148360400Y-78252600D03*
X148360400Y-75327600D03*
%TD*%
%TO.C,R6*%
X169113200Y-57342500D03*
X169113200Y-54417500D03*
%TD*%
M02*
