M48
; DRILL file {KiCad 7.0.2} date Mon May 22 00:30:25 2023
; FORMAT={-:-/ absolute / metric / decimal}
; #@! TF.CreationDate,2023-05-22T00:30:25+09:00
; #@! TF.GenerationSoftware,Kicad,Pcbnew,7.0.2
; #@! TF.FileFunction,MixedPlating,1,2
FMAT,2
METRIC
; #@! TA.AperFunction,Plated,PTH,ComponentDrill
T1C0.300
; #@! TA.AperFunction,Plated,PTH,ViaDrill
T2C0.400
; #@! TA.AperFunction,Plated,PTH,ComponentDrill
T3C0.762
; #@! TA.AperFunction,Plated,PTH,ComponentDrill
T4C3.000
%
G90
G05
T2
X138.0Y-56.0
X138.43Y-68.58
X139.0Y-44.5
X139.01Y-60.88
X139.45Y-64.15
X139.45Y-67.3
X139.55Y-82.1
X139.75Y-97.18
X140.081Y-62.611
X140.716Y-59.69
X141.0Y-72.45
X141.0Y-88.385
X141.05Y-56.8
X141.42Y-38.59
X141.95Y-79.85
X142.0Y-64.1
X142.05Y-48.2
X142.3Y-70.85
X142.3Y-86.735
X142.35Y-55.0
X142.875Y-88.392
X143.25Y-38.79
X144.272Y-64.897
X144.399Y-48.26
X144.653Y-67.818
X144.653Y-84.074
X144.7Y-49.84
X145.288Y-52.578
X145.415Y-76.835
X145.669Y-60.325
X146.95Y-88.395
X147.05Y-56.8
X147.05Y-72.45
X147.95Y-79.875
X148.0Y-48.2
X148.1Y-64.1
X148.25Y-86.735
X148.35Y-55.0
X148.35Y-70.85
X150.15Y-45.25
X150.15Y-98.25
X150.368Y-84.455
X150.495Y-68.072
X150.876Y-52.451
X151.257Y-64.897
X151.257Y-76.835
X151.384Y-61.341
X151.384Y-92.202
X152.69Y-45.25
X152.69Y-98.25
X153.0Y-88.385
X153.1Y-56.8
X153.1Y-72.45
X154.0Y-64.1
X154.0Y-79.875
X154.1Y-48.2
X154.3Y-86.735
X154.4Y-55.0
X154.4Y-70.85
X154.559Y-88.011
X154.813Y-83.058
X155.23Y-45.25
X155.23Y-98.25
X156.09Y-84.48
X156.4Y-98.919
X156.718Y-52.324
X156.845Y-67.691
X156.972Y-49.784
X157.099Y-64.77
X157.2Y-91.2
X157.353Y-76.581
X157.48Y-60.452
X157.77Y-45.25
X157.77Y-98.25
X158.4Y-86.8
X158.4Y-88.8
X159.0Y-94.4
X159.1Y-56.8
X159.15Y-72.45
X159.2Y-84.6
X160.15Y-48.2
X160.15Y-64.1
X160.31Y-45.25
X160.31Y-98.25
X160.4Y-70.85
X160.45Y-55.0
X161.37Y-87.94
X162.28Y-90.03
X162.687Y-67.691
X162.85Y-45.25
X162.85Y-98.25
X162.941Y-52.324
X163.02Y-93.99
X163.322Y-49.784
X163.322Y-64.77
X163.576Y-76.962
X163.703Y-60.198
X164.0Y-86.2
X165.15Y-56.8
X165.2Y-72.45
X165.39Y-45.25
X165.39Y-98.25
X165.4Y-87.6
X166.15Y-48.25
X166.225Y-64.1
X166.45Y-55.0
X166.47Y-90.71
X166.5Y-70.85
X166.6Y-99.8
X167.93Y-45.25
X167.93Y-98.25
X168.656Y-67.818
X168.783Y-49.276
X169.037Y-52.197
X169.291Y-60.071
X169.418Y-64.389
X169.418Y-76.708
X170.434Y-46.355
X170.47Y-98.25
X171.15Y-56.8
X171.15Y-72.45
X172.125Y-64.075
X172.15Y-48.2
X172.45Y-55.0
X172.45Y-70.85
X173.228Y-49.657
X174.053Y-48.768
X174.46Y-52.73
X174.498Y-68.326
X175.387Y-79.248
X175.5Y-91.3
X175.8Y-82.8
X176.022Y-62.992
X176.5Y-43.9
X177.15Y-56.8
X177.15Y-72.45
X177.78Y-38.68
X178.1Y-64.075
X178.15Y-48.2
X178.309Y-66.685
X178.45Y-55.0
X178.45Y-70.85
X179.45Y-38.49
T3
X147.61Y-41.275
X147.61Y-102.235
X150.15Y-41.275
X150.15Y-102.235
X152.69Y-41.275
X152.69Y-102.235
X155.23Y-41.275
X155.23Y-102.235
X157.77Y-41.275
X157.77Y-102.235
X160.31Y-41.275
X160.31Y-102.235
X162.85Y-41.275
X162.85Y-102.235
X165.39Y-41.275
X165.39Y-102.235
X167.93Y-41.275
X167.93Y-102.235
X170.47Y-41.275
X170.47Y-102.235
T4
X159.0Y-33.0
X159.0Y-110.6
T1
G00X134.73Y-36.4
M15
G01X134.73Y-38.1
M16
G05
G00X134.73Y-39.5
M15
G01X134.73Y-41.2
M16
G05
G00X134.73Y-42.6
M15
G01X134.73Y-44.3
M16
G05
G00X134.73Y-99.68
M15
G01X134.73Y-101.38
M16
G05
G00X134.73Y-102.79
M15
G01X134.73Y-104.49
M16
G05
G00X134.73Y-105.89
M15
G01X134.73Y-107.59
M16
G05
G00X183.05Y-36.4
M15
G01X183.05Y-38.1
M16
G05
G00X183.05Y-39.5
M15
G01X183.05Y-41.2
M16
G05
G00X183.05Y-42.6
M15
G01X183.05Y-44.3
M16
G05
G00X183.05Y-99.69
M15
G01X183.05Y-101.39
M16
G05
G00X183.05Y-102.79
M15
G01X183.05Y-104.49
M16
G05
G00X183.05Y-105.89
M15
G01X183.05Y-107.59
M16
G05
T0
M30
